# xmcd
#
# Track frame offsets: 
#        150
#        12608
#        26803
#        41552
#        55886
#        69134
#        82987
#        97477
#        109905
#        124050
#        138800
#        153051
#        165669
#        180102
#        193991
#        208288
#        221963
#        237867
#        251340
#        265193
#        281450
#        295267
#        307860
#        320772
#
# Disc length: 4441 seconds
#
# Revision: 0
# Processed by: cddbd v1.5.2PL0 Copyright (c) Steve Scherf et al.
# Submitted via: ExactAudioCopy v1.0b4
#
DISCID=5e115718
DTITLE=Various Artist - The Rough Guide To East Coast Blues
DYEAR=2015
DGENRE=Blues
TTITLE0=Blind Blake - Come On Boys Let's Do That Messin' Around
TTITLE1=Curley Weaver - No No Blues
TTITLE2=Luke Jordan - Church Bells Blues
TTITLE3=Willie Walker - South Carolina Rag (take 1)
TTITLE4=Bumble Bee Slim - Greasy Greens
TTITLE5=Peg Leg Howell - Skin Game Blues
TTITLE6=Blind Willie McTell - Mama, Let Me Scoop For You
TTITLE7=Carl Martin - Old Time Blues
TTITLE8=Pink Anderson and Simmie Dooley - Gonna Trip Out Tonight
TTITLE9=William Moore - One Way Gal
TTITLE10=Barbecue Bob - Honey You Don't Know My Mind
TTITLE11=Blind Boy Fuller - Truckin' My Blues Away No 2 (take 2)
TTITLE12=Julius Daniels - Ninety Nine Year Blues (take 2)
TTITLE13=Bull City Red - I Saw The Light
TTITLE14=Buddy Moss - Hard Road Blues
TTITLE15=Georgia Cotton Pickers - She's Coming Back Some Rainy Cold Da
TTITLE15=y
TTITLE16=Josh White - Lord, I Want To Die Easy
TTITLE17=Tarter and Gay - Brownie Blues
TTITLE18=Reverend Gary Davis - O Lord, Search My Heart
TTITLE19=Charley Lincoln - Jealous Hearted Blues
TTITLE20=Fred McCullen - DeKalb Chain Gang
TTITLE21=Sonny Terry - Harmonica Stomp
TTITLE22=Floyd Council - Runaway Man Blues
TTITLE23=Brownie McGhee - Unfair Blues
EXTD=
EXTT0=
EXTT1=
EXTT2=
EXTT3=
EXTT4=
EXTT5=
EXTT6=
EXTT7=
EXTT8=
EXTT9=
EXTT10=
EXTT11=
EXTT12=
EXTT13=
EXTT14=
EXTT15=
EXTT16=
EXTT17=
EXTT18=
EXTT19=
EXTT20=
EXTT21=
EXTT22=
EXTT23=
PLAYORDER=
